G04 #@! TF.GenerationSoftware,KiCad,Pcbnew,9.0.4*
G04 #@! TF.CreationDate,2026-02-17T22:59:43+01:00*
G04 #@! TF.ProjectId,ds_phat_usb_c,64735f70-6861-4745-9f75-73625f632e6b,rev?*
G04 #@! TF.SameCoordinates,Original*
G04 #@! TF.FileFunction,Legend,Bot*
G04 #@! TF.FilePolarity,Positive*
%FSLAX46Y46*%
G04 Gerber Fmt 4.6, Leading zero omitted, Abs format (unit mm)*
G04 Created by KiCad (PCBNEW 9.0.4) date 2026-02-17 22:59:43*
%MOMM*%
%LPD*%
G01*
G04 APERTURE LIST*
%ADD10C,0.250000*%
G04 APERTURE END LIST*
D10*
X149042857Y-70055809D02*
X149376190Y-70055809D01*
X149376190Y-70579619D02*
X149376190Y-69579619D01*
X149376190Y-69579619D02*
X148900000Y-69579619D01*
X148042857Y-70579619D02*
X148519047Y-70579619D01*
X148519047Y-70579619D02*
X148519047Y-69579619D01*
X147852380Y-69579619D02*
X147280952Y-69579619D01*
X147566666Y-70579619D02*
X147566666Y-69579619D01*
X151161904Y-72049619D02*
X151161904Y-71049619D01*
X151161904Y-71049619D02*
X150923809Y-71049619D01*
X150923809Y-71049619D02*
X150780952Y-71097238D01*
X150780952Y-71097238D02*
X150685714Y-71192476D01*
X150685714Y-71192476D02*
X150638095Y-71287714D01*
X150638095Y-71287714D02*
X150590476Y-71478190D01*
X150590476Y-71478190D02*
X150590476Y-71621047D01*
X150590476Y-71621047D02*
X150638095Y-71811523D01*
X150638095Y-71811523D02*
X150685714Y-71906761D01*
X150685714Y-71906761D02*
X150780952Y-72002000D01*
X150780952Y-72002000D02*
X150923809Y-72049619D01*
X150923809Y-72049619D02*
X151161904Y-72049619D01*
X150209523Y-72002000D02*
X150066666Y-72049619D01*
X150066666Y-72049619D02*
X149828571Y-72049619D01*
X149828571Y-72049619D02*
X149733333Y-72002000D01*
X149733333Y-72002000D02*
X149685714Y-71954380D01*
X149685714Y-71954380D02*
X149638095Y-71859142D01*
X149638095Y-71859142D02*
X149638095Y-71763904D01*
X149638095Y-71763904D02*
X149685714Y-71668666D01*
X149685714Y-71668666D02*
X149733333Y-71621047D01*
X149733333Y-71621047D02*
X149828571Y-71573428D01*
X149828571Y-71573428D02*
X150019047Y-71525809D01*
X150019047Y-71525809D02*
X150114285Y-71478190D01*
X150114285Y-71478190D02*
X150161904Y-71430571D01*
X150161904Y-71430571D02*
X150209523Y-71335333D01*
X150209523Y-71335333D02*
X150209523Y-71240095D01*
X150209523Y-71240095D02*
X150161904Y-71144857D01*
X150161904Y-71144857D02*
X150114285Y-71097238D01*
X150114285Y-71097238D02*
X150019047Y-71049619D01*
X150019047Y-71049619D02*
X149780952Y-71049619D01*
X149780952Y-71049619D02*
X149638095Y-71097238D01*
X149447619Y-72144857D02*
X148685714Y-72144857D01*
X148447618Y-71382952D02*
X148447618Y-72382952D01*
X148447618Y-71430571D02*
X148352380Y-71382952D01*
X148352380Y-71382952D02*
X148161904Y-71382952D01*
X148161904Y-71382952D02*
X148066666Y-71430571D01*
X148066666Y-71430571D02*
X148019047Y-71478190D01*
X148019047Y-71478190D02*
X147971428Y-71573428D01*
X147971428Y-71573428D02*
X147971428Y-71859142D01*
X147971428Y-71859142D02*
X148019047Y-71954380D01*
X148019047Y-71954380D02*
X148066666Y-72002000D01*
X148066666Y-72002000D02*
X148161904Y-72049619D01*
X148161904Y-72049619D02*
X148352380Y-72049619D01*
X148352380Y-72049619D02*
X148447618Y-72002000D01*
X147542856Y-72049619D02*
X147542856Y-71049619D01*
X147114285Y-72049619D02*
X147114285Y-71525809D01*
X147114285Y-71525809D02*
X147161904Y-71430571D01*
X147161904Y-71430571D02*
X147257142Y-71382952D01*
X147257142Y-71382952D02*
X147399999Y-71382952D01*
X147399999Y-71382952D02*
X147495237Y-71430571D01*
X147495237Y-71430571D02*
X147542856Y-71478190D01*
X146209523Y-72049619D02*
X146209523Y-71525809D01*
X146209523Y-71525809D02*
X146257142Y-71430571D01*
X146257142Y-71430571D02*
X146352380Y-71382952D01*
X146352380Y-71382952D02*
X146542856Y-71382952D01*
X146542856Y-71382952D02*
X146638094Y-71430571D01*
X146209523Y-72002000D02*
X146304761Y-72049619D01*
X146304761Y-72049619D02*
X146542856Y-72049619D01*
X146542856Y-72049619D02*
X146638094Y-72002000D01*
X146638094Y-72002000D02*
X146685713Y-71906761D01*
X146685713Y-71906761D02*
X146685713Y-71811523D01*
X146685713Y-71811523D02*
X146638094Y-71716285D01*
X146638094Y-71716285D02*
X146542856Y-71668666D01*
X146542856Y-71668666D02*
X146304761Y-71668666D01*
X146304761Y-71668666D02*
X146209523Y-71621047D01*
X145876189Y-71382952D02*
X145495237Y-71382952D01*
X145733332Y-71049619D02*
X145733332Y-71906761D01*
X145733332Y-71906761D02*
X145685713Y-72002000D01*
X145685713Y-72002000D02*
X145590475Y-72049619D01*
X145590475Y-72049619D02*
X145495237Y-72049619D01*
X150612856Y-72859619D02*
X150612856Y-73669142D01*
X150612856Y-73669142D02*
X150565237Y-73764380D01*
X150565237Y-73764380D02*
X150517618Y-73812000D01*
X150517618Y-73812000D02*
X150422380Y-73859619D01*
X150422380Y-73859619D02*
X150231904Y-73859619D01*
X150231904Y-73859619D02*
X150136666Y-73812000D01*
X150136666Y-73812000D02*
X150089047Y-73764380D01*
X150089047Y-73764380D02*
X150041428Y-73669142D01*
X150041428Y-73669142D02*
X150041428Y-72859619D01*
X149612856Y-73812000D02*
X149469999Y-73859619D01*
X149469999Y-73859619D02*
X149231904Y-73859619D01*
X149231904Y-73859619D02*
X149136666Y-73812000D01*
X149136666Y-73812000D02*
X149089047Y-73764380D01*
X149089047Y-73764380D02*
X149041428Y-73669142D01*
X149041428Y-73669142D02*
X149041428Y-73573904D01*
X149041428Y-73573904D02*
X149089047Y-73478666D01*
X149089047Y-73478666D02*
X149136666Y-73431047D01*
X149136666Y-73431047D02*
X149231904Y-73383428D01*
X149231904Y-73383428D02*
X149422380Y-73335809D01*
X149422380Y-73335809D02*
X149517618Y-73288190D01*
X149517618Y-73288190D02*
X149565237Y-73240571D01*
X149565237Y-73240571D02*
X149612856Y-73145333D01*
X149612856Y-73145333D02*
X149612856Y-73050095D01*
X149612856Y-73050095D02*
X149565237Y-72954857D01*
X149565237Y-72954857D02*
X149517618Y-72907238D01*
X149517618Y-72907238D02*
X149422380Y-72859619D01*
X149422380Y-72859619D02*
X149184285Y-72859619D01*
X149184285Y-72859619D02*
X149041428Y-72907238D01*
X148279523Y-73335809D02*
X148136666Y-73383428D01*
X148136666Y-73383428D02*
X148089047Y-73431047D01*
X148089047Y-73431047D02*
X148041428Y-73526285D01*
X148041428Y-73526285D02*
X148041428Y-73669142D01*
X148041428Y-73669142D02*
X148089047Y-73764380D01*
X148089047Y-73764380D02*
X148136666Y-73812000D01*
X148136666Y-73812000D02*
X148231904Y-73859619D01*
X148231904Y-73859619D02*
X148612856Y-73859619D01*
X148612856Y-73859619D02*
X148612856Y-72859619D01*
X148612856Y-72859619D02*
X148279523Y-72859619D01*
X148279523Y-72859619D02*
X148184285Y-72907238D01*
X148184285Y-72907238D02*
X148136666Y-72954857D01*
X148136666Y-72954857D02*
X148089047Y-73050095D01*
X148089047Y-73050095D02*
X148089047Y-73145333D01*
X148089047Y-73145333D02*
X148136666Y-73240571D01*
X148136666Y-73240571D02*
X148184285Y-73288190D01*
X148184285Y-73288190D02*
X148279523Y-73335809D01*
X148279523Y-73335809D02*
X148612856Y-73335809D01*
X147850952Y-73954857D02*
X147089047Y-73954857D01*
X146279523Y-73764380D02*
X146327142Y-73812000D01*
X146327142Y-73812000D02*
X146469999Y-73859619D01*
X146469999Y-73859619D02*
X146565237Y-73859619D01*
X146565237Y-73859619D02*
X146708094Y-73812000D01*
X146708094Y-73812000D02*
X146803332Y-73716761D01*
X146803332Y-73716761D02*
X146850951Y-73621523D01*
X146850951Y-73621523D02*
X146898570Y-73431047D01*
X146898570Y-73431047D02*
X146898570Y-73288190D01*
X146898570Y-73288190D02*
X146850951Y-73097714D01*
X146850951Y-73097714D02*
X146803332Y-73002476D01*
X146803332Y-73002476D02*
X146708094Y-72907238D01*
X146708094Y-72907238D02*
X146565237Y-72859619D01*
X146565237Y-72859619D02*
X146469999Y-72859619D01*
X146469999Y-72859619D02*
X146327142Y-72907238D01*
X146327142Y-72907238D02*
X146279523Y-72954857D01*
M02*
