G04 #@! TF.GenerationSoftware,KiCad,Pcbnew,9.0.4*
G04 #@! TF.CreationDate,2026-02-17T22:59:43+01:00*
G04 #@! TF.ProjectId,ds_phat_usb_c,64735f70-6861-4745-9f75-73625f632e6b,rev?*
G04 #@! TF.SameCoordinates,Original*
G04 #@! TF.FileFunction,Soldermask,Bot*
G04 #@! TF.FilePolarity,Negative*
%FSLAX46Y46*%
G04 Gerber Fmt 4.6, Leading zero omitted, Abs format (unit mm)*
G04 Created by KiCad (PCBNEW 9.0.4) date 2026-02-17 22:59:43*
%MOMM*%
%LPD*%
G01*
G04 APERTURE LIST*
G04 APERTURE END LIST*
G36*
X151261284Y-75403714D02*
G01*
X151271920Y-75403714D01*
X151302566Y-75411925D01*
X151359770Y-75423304D01*
X151386769Y-75434487D01*
X151410859Y-75440942D01*
X151432454Y-75453410D01*
X151459453Y-75464593D01*
X151507940Y-75496992D01*
X151535428Y-75512862D01*
X151542953Y-75520387D01*
X151549165Y-75524538D01*
X151625461Y-75600834D01*
X151629611Y-75607045D01*
X151637138Y-75614572D01*
X151653009Y-75642062D01*
X151685406Y-75690546D01*
X151696587Y-75717542D01*
X151709058Y-75739141D01*
X151715513Y-75763234D01*
X151726695Y-75790229D01*
X151738071Y-75847424D01*
X151746286Y-75878080D01*
X151747326Y-75893947D01*
X151748348Y-75899085D01*
X151750399Y-75940840D01*
X151751000Y-75950000D01*
X151751000Y-76450000D01*
X151750399Y-76459162D01*
X151748348Y-76500914D01*
X151747326Y-76506051D01*
X151746286Y-76521920D01*
X151738071Y-76552578D01*
X151726695Y-76609770D01*
X151715514Y-76636763D01*
X151709058Y-76660859D01*
X151696586Y-76682460D01*
X151685406Y-76709453D01*
X151653014Y-76757929D01*
X151637138Y-76785428D01*
X151629609Y-76792956D01*
X151625461Y-76799165D01*
X151549165Y-76875461D01*
X151542956Y-76879609D01*
X151535428Y-76887138D01*
X151507929Y-76903014D01*
X151459453Y-76935406D01*
X151432460Y-76946586D01*
X151410859Y-76959058D01*
X151386763Y-76965514D01*
X151359770Y-76976695D01*
X151302573Y-76988072D01*
X151271920Y-76996286D01*
X151261284Y-76996286D01*
X151253949Y-76997745D01*
X151146051Y-76997745D01*
X151138716Y-76996286D01*
X151128080Y-76996286D01*
X151097428Y-76988072D01*
X151040229Y-76976695D01*
X151013234Y-76965513D01*
X150989141Y-76959058D01*
X150967542Y-76946587D01*
X150940546Y-76935406D01*
X150892062Y-76903009D01*
X150864572Y-76887138D01*
X150857045Y-76879611D01*
X150850834Y-76875461D01*
X150774538Y-76799165D01*
X150770387Y-76792953D01*
X150762862Y-76785428D01*
X150746992Y-76757940D01*
X150714593Y-76709453D01*
X150703410Y-76682454D01*
X150690942Y-76660859D01*
X150684487Y-76636769D01*
X150673304Y-76609770D01*
X150661924Y-76552564D01*
X150653714Y-76521920D01*
X150652674Y-76506058D01*
X150651651Y-76500914D01*
X150649599Y-76459148D01*
X150649000Y-76450000D01*
X150649000Y-75950000D01*
X150649599Y-75940854D01*
X150651651Y-75899085D01*
X150652674Y-75893939D01*
X150653714Y-75878080D01*
X150661924Y-75847438D01*
X150673304Y-75790229D01*
X150684488Y-75763227D01*
X150690942Y-75739141D01*
X150703408Y-75717548D01*
X150714593Y-75690546D01*
X150746996Y-75642051D01*
X150762862Y-75614572D01*
X150770385Y-75607048D01*
X150774538Y-75600834D01*
X150850834Y-75524538D01*
X150857048Y-75520385D01*
X150864572Y-75512862D01*
X150892051Y-75496996D01*
X150940546Y-75464593D01*
X150967548Y-75453408D01*
X150989141Y-75440942D01*
X151013227Y-75434488D01*
X151040229Y-75423304D01*
X151097434Y-75411925D01*
X151128080Y-75403714D01*
X151138716Y-75403714D01*
X151146051Y-75402255D01*
X151253949Y-75402255D01*
X151261284Y-75403714D01*
G37*
G36*
X144758884Y-75398634D02*
G01*
X144769520Y-75398634D01*
X144800166Y-75406845D01*
X144857370Y-75418224D01*
X144884369Y-75429407D01*
X144908459Y-75435862D01*
X144930054Y-75448330D01*
X144957053Y-75459513D01*
X145005540Y-75491912D01*
X145033028Y-75507782D01*
X145040553Y-75515307D01*
X145046765Y-75519458D01*
X145123061Y-75595754D01*
X145127211Y-75601965D01*
X145134738Y-75609492D01*
X145150609Y-75636982D01*
X145183006Y-75685466D01*
X145194187Y-75712462D01*
X145206658Y-75734061D01*
X145213113Y-75758154D01*
X145224295Y-75785149D01*
X145235671Y-75842344D01*
X145243886Y-75873000D01*
X145244926Y-75888867D01*
X145245948Y-75894005D01*
X145247999Y-75935760D01*
X145248600Y-75944920D01*
X145248600Y-76444920D01*
X145247999Y-76454082D01*
X145245948Y-76495834D01*
X145244926Y-76500971D01*
X145243886Y-76516840D01*
X145235671Y-76547498D01*
X145224295Y-76604690D01*
X145213114Y-76631683D01*
X145206658Y-76655779D01*
X145194186Y-76677380D01*
X145183006Y-76704373D01*
X145150614Y-76752849D01*
X145134738Y-76780348D01*
X145127209Y-76787876D01*
X145123061Y-76794085D01*
X145046765Y-76870381D01*
X145040556Y-76874529D01*
X145033028Y-76882058D01*
X145005529Y-76897934D01*
X144957053Y-76930326D01*
X144930060Y-76941506D01*
X144908459Y-76953978D01*
X144884363Y-76960434D01*
X144857370Y-76971615D01*
X144800173Y-76982992D01*
X144769520Y-76991206D01*
X144758884Y-76991206D01*
X144751549Y-76992665D01*
X144643651Y-76992665D01*
X144636316Y-76991206D01*
X144625680Y-76991206D01*
X144595028Y-76982992D01*
X144537829Y-76971615D01*
X144510834Y-76960433D01*
X144486741Y-76953978D01*
X144465142Y-76941507D01*
X144438146Y-76930326D01*
X144389662Y-76897929D01*
X144362172Y-76882058D01*
X144354645Y-76874531D01*
X144348434Y-76870381D01*
X144272138Y-76794085D01*
X144267987Y-76787873D01*
X144260462Y-76780348D01*
X144244592Y-76752860D01*
X144212193Y-76704373D01*
X144201010Y-76677374D01*
X144188542Y-76655779D01*
X144182087Y-76631689D01*
X144170904Y-76604690D01*
X144159524Y-76547484D01*
X144151314Y-76516840D01*
X144150274Y-76500978D01*
X144149251Y-76495834D01*
X144147199Y-76454068D01*
X144146600Y-76444920D01*
X144146600Y-75944920D01*
X144147199Y-75935774D01*
X144149251Y-75894005D01*
X144150274Y-75888859D01*
X144151314Y-75873000D01*
X144159524Y-75842358D01*
X144170904Y-75785149D01*
X144182088Y-75758147D01*
X144188542Y-75734061D01*
X144201008Y-75712468D01*
X144212193Y-75685466D01*
X144244596Y-75636971D01*
X144260462Y-75609492D01*
X144267985Y-75601968D01*
X144272138Y-75595754D01*
X144348434Y-75519458D01*
X144354648Y-75515305D01*
X144362172Y-75507782D01*
X144389651Y-75491916D01*
X144438146Y-75459513D01*
X144465148Y-75448328D01*
X144486741Y-75435862D01*
X144510827Y-75429408D01*
X144537829Y-75418224D01*
X144595034Y-75406845D01*
X144625680Y-75398634D01*
X144636316Y-75398634D01*
X144643651Y-75397175D01*
X144751549Y-75397175D01*
X144758884Y-75398634D01*
G37*
G36*
X144399714Y-73392295D02*
G01*
X144535548Y-73448559D01*
X144657795Y-73530242D01*
X144761758Y-73634205D01*
X144843441Y-73756452D01*
X144899705Y-73892286D01*
X144928389Y-74036487D01*
X144928389Y-74183513D01*
X144899705Y-74327714D01*
X144843441Y-74463548D01*
X144761758Y-74585795D01*
X144657795Y-74689758D01*
X144535548Y-74771441D01*
X144399714Y-74827705D01*
X144255513Y-74856389D01*
X144108487Y-74856389D01*
X143964286Y-74827705D01*
X143828452Y-74771441D01*
X143706205Y-74689758D01*
X143602242Y-74585795D01*
X143520559Y-74463548D01*
X143464295Y-74327714D01*
X143435611Y-74183513D01*
X143435611Y-74036487D01*
X143464295Y-73892286D01*
X143520559Y-73756452D01*
X143602242Y-73634205D01*
X143706205Y-73530242D01*
X143828452Y-73448559D01*
X143964286Y-73392295D01*
X144108487Y-73363611D01*
X144255513Y-73363611D01*
X144399714Y-73392295D01*
G37*
G36*
X153035714Y-73392295D02*
G01*
X153171548Y-73448559D01*
X153293795Y-73530242D01*
X153397758Y-73634205D01*
X153479441Y-73756452D01*
X153535705Y-73892286D01*
X153564389Y-74036487D01*
X153564389Y-74183513D01*
X153535705Y-74327714D01*
X153479441Y-74463548D01*
X153397758Y-74585795D01*
X153293795Y-74689758D01*
X153171548Y-74771441D01*
X153035714Y-74827705D01*
X152891513Y-74856389D01*
X152744487Y-74856389D01*
X152600286Y-74827705D01*
X152464452Y-74771441D01*
X152342205Y-74689758D01*
X152238242Y-74585795D01*
X152156559Y-74463548D01*
X152100295Y-74327714D01*
X152071611Y-74183513D01*
X152071611Y-74036487D01*
X152100295Y-73892286D01*
X152156559Y-73756452D01*
X152238242Y-73634205D01*
X152342205Y-73530242D01*
X152464452Y-73448559D01*
X152600286Y-73392295D01*
X152744487Y-73363611D01*
X152891513Y-73363611D01*
X153035714Y-73392295D01*
G37*
G36*
X143800009Y-71542135D02*
G01*
X143925175Y-71567032D01*
X144043079Y-71615869D01*
X144149190Y-71686770D01*
X144239430Y-71777010D01*
X144310331Y-71883121D01*
X144359168Y-72001025D01*
X144384065Y-72126191D01*
X144384065Y-72253809D01*
X144359168Y-72378975D01*
X144310331Y-72496879D01*
X144239430Y-72602990D01*
X144149190Y-72693230D01*
X144043079Y-72764131D01*
X143925175Y-72812968D01*
X143800009Y-72837865D01*
X143736200Y-72841000D01*
X143733139Y-72841000D01*
X143239261Y-72841000D01*
X143236200Y-72841000D01*
X143172391Y-72837865D01*
X143047225Y-72812968D01*
X142929321Y-72764131D01*
X142823210Y-72693230D01*
X142732970Y-72602990D01*
X142662069Y-72496879D01*
X142613232Y-72378975D01*
X142588335Y-72253809D01*
X142588335Y-72126191D01*
X142613232Y-72001025D01*
X142662069Y-71883121D01*
X142732970Y-71777010D01*
X142823210Y-71686770D01*
X142929321Y-71615869D01*
X143047225Y-71567032D01*
X143172391Y-71542135D01*
X143236200Y-71539000D01*
X143736200Y-71539000D01*
X143800009Y-71542135D01*
G37*
G36*
X153807609Y-71542135D02*
G01*
X153932775Y-71567032D01*
X154050679Y-71615869D01*
X154156790Y-71686770D01*
X154247030Y-71777010D01*
X154317931Y-71883121D01*
X154366768Y-72001025D01*
X154391665Y-72126191D01*
X154391665Y-72253809D01*
X154366768Y-72378975D01*
X154317931Y-72496879D01*
X154247030Y-72602990D01*
X154156790Y-72693230D01*
X154050679Y-72764131D01*
X153932775Y-72812968D01*
X153807609Y-72837865D01*
X153743800Y-72841000D01*
X153740739Y-72841000D01*
X153246861Y-72841000D01*
X153243800Y-72841000D01*
X153179991Y-72837865D01*
X153054825Y-72812968D01*
X152936921Y-72764131D01*
X152830810Y-72693230D01*
X152740570Y-72602990D01*
X152669669Y-72496879D01*
X152620832Y-72378975D01*
X152595935Y-72253809D01*
X152595935Y-72126191D01*
X152620832Y-72001025D01*
X152669669Y-71883121D01*
X152740570Y-71777010D01*
X152830810Y-71686770D01*
X152936921Y-71615869D01*
X153054825Y-71567032D01*
X153179991Y-71542135D01*
X153243800Y-71539000D01*
X153743800Y-71539000D01*
X153807609Y-71542135D01*
G37*
G36*
X144399714Y-69594995D02*
G01*
X144535548Y-69651259D01*
X144657795Y-69732942D01*
X144761758Y-69836905D01*
X144843441Y-69959152D01*
X144899705Y-70094986D01*
X144928389Y-70239187D01*
X144928389Y-70386213D01*
X144899705Y-70530414D01*
X144843441Y-70666248D01*
X144761758Y-70788495D01*
X144657795Y-70892458D01*
X144535548Y-70974141D01*
X144399714Y-71030405D01*
X144255513Y-71059089D01*
X144108487Y-71059089D01*
X143964286Y-71030405D01*
X143828452Y-70974141D01*
X143706205Y-70892458D01*
X143602242Y-70788495D01*
X143520559Y-70666248D01*
X143464295Y-70530414D01*
X143435611Y-70386213D01*
X143435611Y-70239187D01*
X143464295Y-70094986D01*
X143520559Y-69959152D01*
X143602242Y-69836905D01*
X143706205Y-69732942D01*
X143828452Y-69651259D01*
X143964286Y-69594995D01*
X144108487Y-69566311D01*
X144255513Y-69566311D01*
X144399714Y-69594995D01*
G37*
G36*
X153035714Y-69594995D02*
G01*
X153171548Y-69651259D01*
X153293795Y-69732942D01*
X153397758Y-69836905D01*
X153479441Y-69959152D01*
X153535705Y-70094986D01*
X153564389Y-70239187D01*
X153564389Y-70386213D01*
X153535705Y-70530414D01*
X153479441Y-70666248D01*
X153397758Y-70788495D01*
X153293795Y-70892458D01*
X153171548Y-70974141D01*
X153035714Y-71030405D01*
X152891513Y-71059089D01*
X152744487Y-71059089D01*
X152600286Y-71030405D01*
X152464452Y-70974141D01*
X152342205Y-70892458D01*
X152238242Y-70788495D01*
X152156559Y-70666248D01*
X152100295Y-70530414D01*
X152071611Y-70386213D01*
X152071611Y-70239187D01*
X152100295Y-70094986D01*
X152156559Y-69959152D01*
X152238242Y-69836905D01*
X152342205Y-69732942D01*
X152464452Y-69651259D01*
X152600286Y-69594995D01*
X152744487Y-69566311D01*
X152891513Y-69566311D01*
X153035714Y-69594995D01*
G37*
M02*
