G04 #@! TF.GenerationSoftware,KiCad,Pcbnew,9.0.4*
G04 #@! TF.CreationDate,2026-02-17T22:59:43+01:00*
G04 #@! TF.ProjectId,ds_phat_usb_c,64735f70-6861-4745-9f75-73625f632e6b,rev?*
G04 #@! TF.SameCoordinates,Original*
G04 #@! TF.FileFunction,Copper,L1,Top*
G04 #@! TF.FilePolarity,Positive*
%FSLAX46Y46*%
G04 Gerber Fmt 4.6, Leading zero omitted, Abs format (unit mm)*
G04 Created by KiCad (PCBNEW 9.0.4) date 2026-02-17 22:59:43*
%MOMM*%
%LPD*%
G01*
G04 APERTURE LIST*
G04 Aperture macros list*
%AMRoundRect*
0 Rectangle with rounded corners*
0 $1 Rounding radius*
0 $2 $3 $4 $5 $6 $7 $8 $9 X,Y pos of 4 corners*
0 Add a 4 corners polygon primitive as box body*
4,1,4,$2,$3,$4,$5,$6,$7,$8,$9,$2,$3,0*
0 Add four circle primitives for the rounded corners*
1,1,$1+$1,$2,$3*
1,1,$1+$1,$4,$5*
1,1,$1+$1,$6,$7*
1,1,$1+$1,$8,$9*
0 Add four rect primitives between the rounded corners*
20,1,$1+$1,$2,$3,$4,$5,0*
20,1,$1+$1,$4,$5,$6,$7,0*
20,1,$1+$1,$6,$7,$8,$9,0*
20,1,$1+$1,$8,$9,$2,$3,0*%
G04 Aperture macros list end*
G04 #@! TA.AperFunction,ComponentPad*
%ADD10C,1.500000*%
G04 #@! TD*
G04 #@! TA.AperFunction,SMDPad,CuDef*
%ADD11R,0.600000X1.000000*%
G04 #@! TD*
G04 #@! TA.AperFunction,SMDPad,CuDef*
%ADD12R,0.520000X1.000000*%
G04 #@! TD*
G04 #@! TA.AperFunction,ComponentPad*
%ADD13O,1.700000X1.200000*%
G04 #@! TD*
G04 #@! TA.AperFunction,SMDPad,CuDef*
%ADD14RoundRect,0.237500X0.287500X0.237500X-0.287500X0.237500X-0.287500X-0.237500X0.287500X-0.237500X0*%
G04 #@! TD*
G04 #@! TA.AperFunction,ComponentPad*
%ADD15O,1.000000X1.500000*%
G04 #@! TD*
G04 #@! TA.AperFunction,SMDPad,CuDef*
%ADD16RoundRect,0.237500X0.237500X-0.287500X0.237500X0.287500X-0.237500X0.287500X-0.237500X-0.287500X0*%
G04 #@! TD*
G04 #@! TA.AperFunction,ViaPad*
%ADD17C,0.800000*%
G04 #@! TD*
G04 #@! TA.AperFunction,Conductor*
%ADD18C,0.250000*%
G04 #@! TD*
G04 APERTURE END LIST*
D10*
X144182000Y-70312700D03*
X144182000Y-74110000D03*
D11*
X145744100Y-74110000D03*
X151255900Y-74110000D03*
D10*
X152818000Y-70312700D03*
X152818000Y-74110000D03*
D12*
X146976000Y-74110000D03*
X150024000Y-74110000D03*
X147992000Y-74110000D03*
X149008000Y-74110000D03*
D13*
X143486200Y-72190000D03*
X153493800Y-72190000D03*
D14*
X148650000Y-76000000D03*
X146900000Y-76000000D03*
D15*
X144697600Y-76194920D03*
X151200000Y-76200000D03*
D16*
X143000000Y-75375000D03*
X143000000Y-73625000D03*
D17*
X148000000Y-73000000D03*
X143000000Y-76500000D03*
D18*
X143000000Y-76000000D02*
X143000000Y-76500000D01*
X147992000Y-74110000D02*
X147992000Y-73008000D01*
X143000000Y-75375000D02*
X143000000Y-76000000D01*
X147992000Y-73008000D02*
X148000000Y-73000000D01*
X145744100Y-74954100D02*
X146900000Y-76110000D01*
X152818000Y-70312700D02*
X152068001Y-71062699D01*
X152818000Y-74110000D02*
X151255900Y-74110000D01*
X143697000Y-73625000D02*
X144182000Y-74110000D01*
X151255900Y-74110000D02*
X151255900Y-73360000D01*
X152068001Y-71062699D02*
X152068001Y-73360001D01*
X144931999Y-73360001D02*
X144931999Y-71062699D01*
X144697600Y-76194920D02*
X144697600Y-75944920D01*
X147300000Y-71500000D02*
X145744100Y-73055900D01*
X151255900Y-73360000D02*
X149395900Y-71500000D01*
X145688420Y-74954100D02*
X145744100Y-74954100D01*
X144931999Y-71062699D02*
X144182000Y-70312700D01*
X143000000Y-73625000D02*
X143697000Y-73625000D01*
X145744100Y-74110000D02*
X145744100Y-74954100D01*
X144182000Y-74110000D02*
X144931999Y-73360001D01*
X152818000Y-70312700D02*
X144182000Y-70312700D01*
X149395900Y-71500000D02*
X147300000Y-71500000D01*
X145744100Y-73055900D02*
X145744100Y-74110000D01*
X152068001Y-73360001D02*
X152818000Y-74110000D01*
X144697600Y-75944920D02*
X145688420Y-74954100D01*
X149031654Y-72031654D02*
X150024000Y-73024000D01*
X146976000Y-72524000D02*
X147468346Y-72031654D01*
X146976000Y-74110000D02*
X146976000Y-72524000D01*
X150024000Y-73024000D02*
X150024000Y-74110000D01*
X150450000Y-76200000D02*
X151200000Y-76200000D01*
X147468346Y-72031654D02*
X149031654Y-72031654D01*
X150024000Y-74110000D02*
X150024000Y-75774000D01*
X150024000Y-75774000D02*
X150450000Y-76200000D01*
X148650000Y-76110000D02*
X148650000Y-74468000D01*
X148650000Y-74468000D02*
X149008000Y-74110000D01*
M02*
